# xmcd
#
# Track frame offsets:
#	150
#	11230
#	23634
#	35599
#	48176
#	60739
#	73974
#	85922
#	94996
#	106407
#	119227
#	132789
#	143428
#	152958
#	165466
#	176038
#	188356
#	199753
#	210214
#	221713
#
# Disc length: 3075 seconds
#
# Revision: 1
# Processed by: cddbd v1.5.2PL0 Copyright (c) Steve Scherf et al.
# Submitted via: audiograbber 1.83.01
#
DISCID=1c0c0114
DTITLE=Various Artist - Let The Good Times Roll CD2
DYEAR=2016
DGENRE=Blues
TTITLE0=Ray Charles - Let The Good Times Roll
TTITLE1=T-Bone Walker - T-Bone Shuffle
TTITLE2=Ike and Tina Turner - A Fool In Love
TTITLE3=The Midnighters - Work With Me Annie
TTITLE4=Bo Diddley - I'm A Man
TTITLE5=Tarheel Slim - Number 9 Train
TTITLE6=Baby Washington - Money's Funny
TTITLE7=Larry Williams - Short Fat Fannie
TTITLE8=Clarence Henry - I'm In Love
TTITLE9=Jimmy Witherspoon - Good Jumpin' (Jump Children)
TTITLE10=Ruth Brown - Mama (He Treats Your Daughter Mean)
TTITLE11=Earl King - Darling Honey Angel Child
TTITLE12=Big Joe Turner - We're Gonna Jump For Joy
TTITLE13=LaVern Baker and Ben E King - A Help-Each-Other Romance
TTITLE14=Jimmy Anderson - Naggin'
TTITLE15=Slim Harpo - I Got Love If You Want It
TTITLE16=Lazy Lester - I'm A Lover, Not A Fighter
TTITLE17=Leroy Washington - Wild Cherry
TTITLE18=Earl Hooker and The Earlettes - That Man
TTITLE19=Arthur Alexander - A Shot Of Rhythm And Blues
EXTD=
EXTT0=
EXTT1=
EXTT2=
EXTT3=
EXTT4=
EXTT5=
EXTT6=
EXTT7=
EXTT8=
EXTT9=
EXTT10=
EXTT11=
EXTT12=
EXTT13=
EXTT14=
EXTT15=
EXTT16=
EXTT17=
EXTT18=
EXTT19=
PLAYORDER=
